# xmcd
#
# Track frame offsets:
#   182
#   15975
#   32755
#   54345
#   73835
#   91652
#   112760
#   130195
#   150265
#   170827
#   192072
#   214565
#
# Disc length: 3104 seconds
#
# Revision: 1
# Processed by: cddbd v1.5.1PL0 Copyright (c) Steve Scherf et al.
# Submitted via: Media_Universe 3.0
#
DISCID=8b0c1e0c
DTITLE=Las Chicas Del Can - Botando Chispa!
DYEAR=1992
DGENRE=Merengue
TTITLE0=Botando Chispa
TTITLE1=Besame
TTITLE2=Te Quiero Ver
TTITLE3=Rock Around On The Clock
TTITLE4=Asesino
TTITLE5=Todos Los Hombres Son Iguales
TTITLE6=Dame Una Noche
TTITLE7=Vuelve
TTITLE8=La Estrella
TTITLE9=Mi Gobernador
TTITLE10=Asesino [Bachata-Merengue]
TTITLE11=Para Vivir
EXTD=YEAR: 1992
EXTT0=
EXTT1=
EXTT2=
EXTT3=
EXTT4=
EXTT5=
EXTT6=
EXTT7=
EXTT8=
EXTT9=
EXTT10=
EXTT11=
PLAYORDER=
